<?xml version="1.0" standalone="no"?>
<!DOCTYPE svg PUBLIC "-//W3C//DTD SVG 20010904//EN"
 "http://www.w3.org/TR/2001/REC-SVG-20010904/DTD/svg10.dtd">
<svg version="1.0" xmlns="http://www.w3.org/2000/svg"
 width="1080.000000pt" height="1080.000000pt" viewBox="0 0 1080.000000 1080.000000"
 preserveAspectRatio="xMidYMid meet">
<metadata>
Created by potrace 1.14, written by Peter Selinger 2001-2017
</metadata>
<g transform="translate(0.000000,1080.000000) scale(0.100000,-0.100000)"
fill="#000000" stroke="none">
<path d="M0 10727 c0 -68 2 -77 44 -144 25 -39 56 -94 71 -122 l26 -52 -28 17
c-15 10 -47 33 -70 52 l-43 33 0 -143 1 -143 241 -190 c132 -104 245 -195 252
-200 6 -6 47 -39 91 -74 44 -35 81 -67 83 -71 3 -8 -99 -70 -184 -113 l-51
-26 -29 26 c-90 79 -165 134 -177 131 -7 -2 -61 -30 -120 -63 l-107 -60 1
-265 0 -265 28 33 c38 45 51 94 51 199 l0 89 56 32 c31 18 63 32 71 32 8 0 31
-13 49 -30 64 -56 112 -75 189 -74 63 1 78 6 150 44 44 24 92 51 107 62 14 10
31 18 36 18 6 0 30 15 54 33 24 18 59 39 78 47 49 20 218 116 259 147 52 40
84 120 79 197 -4 67 3 53 -218 446 -156 277 -147 257 -128 276 22 22 39 14 63
-32 11 -22 63 -115 116 -209 53 -93 120 -213 149 -265 29 -52 65 -108 79 -124
41 -45 116 -76 185 -76 52 0 70 6 155 52 220 117 251 153 259 287 4 75 3 77
-44 166 -26 50 -58 107 -71 127 -34 56 -31 76 8 44 49 -42 206 -112 298 -135
304 -75 653 46 854 294 l48 60 -144 3 -143 3 -77 -52 c-224 -149 -494 -145
-700 10 l-54 41 -246 0 c-136 0 -247 -2 -247 -5 0 -3 11 -23 25 -45 14 -22 25
-41 25 -43 0 -2 58 -107 129 -233 71 -126 127 -232 125 -235 -8 -14 -204 -121
-215 -117 -6 2 -96 154 -199 338 l-188 335 -153 3 c-151 2 -155 2 -203 -24
-28 -16 -51 -23 -53 -17 -13 38 -28 44 -101 41 l-72 -3 76 -135 c84 -150 154
-274 222 -395 25 -44 65 -115 88 -157 24 -43 65 -114 90 -158 25 -44 43 -84
40 -89 -4 -5 -19 -16 -34 -24 -15 -8 -62 -33 -104 -56 l-77 -42 -24 43 c-56
99 -392 694 -447 793 -9 17 -33 60 -53 96 -20 36 -37 71 -37 76 0 6 15 20 33
32 l32 21 -137 0 -138 0 0 -73z"/>
<path d="M3745 10786 c-11 -7 -47 -28 -80 -46 -236 -129 -276 -170 -281 -295
l-3 -60 -100 3 c-321 11 -602 -131 -775 -392 -27 -41 -42 -56 -54 -51 -49 18
-105 24 -147 15 -46 -10 -64 -20 -430 -225 -115 -65 -244 -137 -285 -161 -167
-94 -206 -117 -236 -139 -18 -14 -51 -32 -75 -42 -68 -27 -230 -122 -267 -157
-54 -50 -76 -101 -77 -176 0 -52 5 -74 26 -110 84 -144 128 -224 125 -228 -3
-2 -13 4 -23 13 -10 9 -36 30 -58 46 -22 16 -65 49 -95 74 -156 129 -187 145
-270 145 -61 0 -96 -13 -199 -72 -46 -26 -87 -48 -92 -48 -4 0 -32 -24 -62
-52 -73 -70 -95 -136 -78 -242 10 -68 15 -109 28 -222 3 -28 1 -54 -4 -57 -5
-3 -31 17 -58 44 -27 27 -76 63 -109 79 l-61 29 -3 -121 -3 -121 30 -31 c78
-83 96 -193 48 -286 -15 -29 -27 -53 -27 -53 0 -1 33 -2 73 -2 121 -1 200 -55
256 -175 37 -79 37 -193 -1 -265 -52 -100 -149 -188 -300 -274 l-78 -45 0
-129 0 -128 58 32 c113 63 188 109 246 148 60 40 196 167 196 182 0 5 31 8 69
8 38 -1 79 2 92 6 55 17 271 150 308 190 46 51 66 125 58 222 -5 71 -3 74 80
118 l51 28 44 -35 c79 -65 123 -81 202 -75 60 4 83 11 146 47 41 23 100 56
130 72 30 16 64 38 75 48 11 10 38 25 60 34 63 26 237 127 268 155 50 45 71
98 72 176 0 67 -3 75 -56 170 -31 55 -66 118 -79 140 -12 22 -67 119 -121 216
-54 96 -99 183 -99 192 0 9 9 21 20 27 23 12 15 25 142 -205 52 -93 124 -222
159 -285 102 -181 155 -224 279 -225 75 0 75 0 195 70 145 85 188 126 209 196
31 104 22 144 -73 313 -33 61 -59 111 -57 113 2 2 21 -8 42 -22 171 -117 401
-174 593 -146 140 21 248 63 376 149 109 72 241 228 285 336 12 31 24 56 26
56 3 0 21 -11 42 -24 49 -33 122 -50 175 -42 27 4 92 34 170 79 161 93 173
102 204 164 21 44 25 63 21 116 -3 52 -12 77 -56 156 -29 52 -52 99 -52 106 0
7 12 21 28 31 15 9 47 37 72 61 25 23 50 43 57 43 15 0 33 -61 33 -111 0 -48
44 -133 88 -169 21 -17 62 -38 92 -47 77 -22 137 -8 248 59 48 29 100 60 115
68 85 43 149 183 129 283 -5 28 -8 56 -6 62 3 6 34 27 69 46 l64 34 60 -43
c76 -53 153 -75 222 -62 29 6 101 38 177 81 142 79 155 89 188 142 23 35 27
37 74 37 49 0 74 10 257 111 106 57 155 129 155 227 0 31 -5 69 -11 85 l-11
27 -120 0 c-66 0 -120 -3 -120 -7 0 -3 12 -26 26 -51 22 -37 24 -46 13 -57
-17 -16 -196 -115 -207 -115 -5 0 -37 52 -72 115 l-63 115 -275 0 c-152 0
-273 -2 -271 -4 2 -2 101 -82 219 -176 118 -95 215 -177 215 -183 0 -11 -192
-123 -220 -129 -7 -2 -48 27 -92 63 -126 106 -91 108 -322 -21 -175 -98 -200
-115 -196 -134 2 -11 9 -59 15 -106 6 -47 13 -95 16 -107 3 -18 -9 -29 -74
-66 -90 -53 -150 -82 -155 -76 -4 4 -15 91 -84 642 l-37 297 -516 0 c-417 0
-519 -3 -535 -14z m648 -86 c27 -13 68 -46 93 -73 107 -113 139 -271 80 -390
-44 -91 -154 -193 -296 -275 -89 -51 -85 -44 -56 -90 14 -23 26 -43 26 -46 0
-2 34 -63 75 -136 41 -73 75 -134 75 -135 0 -4 -216 -125 -222 -125 -3 0 -32
46 -63 103 -32 56 -77 136 -100 177 -336 593 -406 722 -402 734 3 7 38 30 79
51 40 21 84 46 98 55 59 41 276 142 342 160 98 27 205 23 271 -10z m-1011
-556 c190 -56 336 -199 410 -400 29 -81 32 -273 4 -354 -53 -156 -162 -285
-301 -357 -115 -59 -183 -77 -295 -77 -258 0 -471 154 -568 412 -36 94 -38
263 -4 369 43 138 166 284 293 348 165 84 312 103 461 59z m-962 -490 c29 -53
48 -99 44 -103 -5 -4 -72 -43 -149 -85 -77 -43 -145 -83 -152 -90 -9 -8 9 -49
81 -176 284 -502 356 -635 352 -645 -7 -19 -207 -128 -216 -119 -4 5 -70 119
-145 254 -76 135 -166 295 -200 355 -34 61 -72 129 -85 153 -13 23 -27 42 -31
42 -4 0 -75 -39 -159 -86 -84 -47 -157 -83 -164 -81 -6 2 -33 43 -60 91 -47
84 -48 88 -31 106 10 11 21 20 25 20 4 0 59 29 121 64 521 293 705 396 711
396 4 0 30 -43 58 -96z m-1025 -504 c14 -22 25 -42 25 -44 0 -3 14 -29 31 -58
31 -52 104 -182 162 -288 17 -30 41 -72 54 -92 13 -21 23 -40 23 -42 0 -3 14
-29 31 -58 35 -59 116 -203 162 -288 16 -30 36 -65 43 -77 13 -21 12 -24 -23
-46 -64 -40 -169 -97 -179 -97 -10 0 -10 1 -134 220 -104 186 -269 478 -323
575 -22 39 -57 102 -79 142 l-39 72 23 15 c42 27 183 105 190 106 4 0 19 -18
33 -40z m-473 -587 c150 -120 282 -225 293 -235 11 -9 61 -48 110 -87 50 -40
97 -77 105 -84 8 -7 54 -43 103 -82 69 -55 85 -72 75 -81 -17 -16 -212 -124
-224 -124 -5 0 -51 36 -103 79 -58 49 -100 77 -109 73 -15 -5 -384 -211 -391
-218 -2 -2 4 -54 13 -116 9 -62 16 -120 16 -130 0 -10 -39 -38 -110 -78 -61
-34 -113 -60 -116 -58 -2 3 -31 216 -64 474 -32 258 -66 521 -75 584 -25 195
-31 179 83 244 53 31 102 56 109 56 7 0 135 -98 285 -217z"/>
<path d="M4122 10471 c-66 -25 -182 -89 -182 -101 0 -18 133 -252 146 -257 16
-6 168 85 210 126 67 65 67 136 0 208 -41 45 -96 52 -174 24z"/>
<path d="M3092 9906 c-57 -19 -88 -40 -143 -96 -67 -69 -92 -140 -87 -251 3
-73 8 -94 36 -151 66 -129 170 -199 307 -206 110 -5 179 21 256 97 77 77 102
145 97 261 -4 104 -34 175 -104 250 -66 70 -138 103 -239 107 -50 2 -96 -2
-123 -11z m150 -218 c84 -25 126 -141 77 -213 -40 -59 -98 -69 -164 -30 -74
43 -97 143 -49 208 34 46 69 55 136 35z"/>
<path d="M680 8441 c0 -4 13 -89 30 -187 16 -98 30 -189 30 -201 0 -13 5 -23
11 -23 11 0 210 109 242 132 17 12 9 22 -90 105 -59 50 -130 112 -158 137 -50
45 -65 54 -65 37z"/>
<path d="M5030 10792 c0 -19 50 -325 54 -329 3 -4 26 8 106 55 19 11 60 34 90
50 30 17 55 35 55 40 0 6 -47 51 -105 101 -100 86 -107 90 -152 91 -27 0 -48
-4 -48 -8z"/>
<path d="M6714 10776 c40 -33 136 -59 183 -50 45 8 90 27 135 54 l33 20 -190
0 -190 -1 29 -23z"/>
<path d="M8220 10793 c0 -5 34 -69 76 -143 42 -74 119 -211 172 -305 103 -184
163 -291 207 -370 95 -171 120 -209 158 -236 51 -37 109 -53 171 -45 43 5 73
18 206 93 19 11 82 46 140 78 125 69 201 126 293 216 l68 67 64 0 c56 -1 74 4
147 40 127 64 218 123 251 164 38 47 57 132 47 208 -4 30 -6 60 -4 65 3 6 33
25 67 44 l63 34 62 -45 c109 -81 196 -85 321 -17 l71 40 0 59 0 60 -372 0
-371 0 -44 -25 c-49 -29 -48 -27 -28 -150 24 -144 29 -132 -89 -197 -100 -56
-125 -66 -127 -50 0 4 -2 14 -3 22 -2 8 -14 102 -27 208 l-23 192 -241 -2
c-164 -1 -215 -3 -160 -8 122 -10 167 -36 229 -132 112 -176 53 -356 -169
-513 -56 -39 -362 -217 -395 -229 -11 -4 -29 20 -66 87 -103 184 -377 674
-412 735 l-36 62 -123 0 c-68 0 -123 -3 -123 -7z"/>
<path d="M8770 10795 c0 -15 86 -155 94 -155 6 0 45 20 88 45 70 41 118 84
118 106 0 5 -67 9 -150 9 -82 0 -150 -2 -150 -5z"/>
<path d="M7325 10575 c-103 -51 -175 -93 -220 -129 -22 -18 -53 -36 -70 -40
-32 -8 -64 -25 -490 -265 -22 -13 -121 -68 -220 -124 -99 -55 -193 -109 -208
-120 -31 -21 -69 -76 -84 -122 l-10 -30 -89 0 -89 0 -106 -57 c-142 -77 -182
-108 -216 -165 -27 -47 -28 -52 -27 -185 0 -96 -3 -138 -11 -138 -6 0 -35 12
-65 26 -73 35 -219 52 -314 35 -140 -24 -259 -74 -510 -215 -140 -79 -173
-100 -204 -135 -39 -43 -55 -83 -60 -152 l-5 -67 -122 5 c-179 8 -318 -27
-480 -121 -83 -49 -205 -166 -264 -255 -42 -61 -44 -63 -75 -55 -17 5 -60 8
-96 8 -72 0 -53 9 -440 -209 -96 -54 -249 -140 -340 -191 -91 -51 -182 -106
-204 -123 -21 -17 -50 -34 -65 -38 -25 -6 -167 -81 -241 -128 -86 -54 -124
-128 -117 -228 4 -56 10 -76 39 -120 39 -58 108 -181 108 -190 0 -7 -88 53
-145 100 -153 126 -180 144 -230 159 -81 23 -139 8 -282 -71 -65 -37 -129 -76
-141 -88 -67 -63 -96 -170 -73 -276 14 -67 26 -251 16 -251 -4 0 -30 22 -57
50 -162 160 -412 168 -700 24 -51 -25 -122 -63 -158 -84 -36 -20 -99 -56 -140
-80 -127 -73 -120 -57 -120 -247 l0 -164 31 -57 c18 -31 61 -109 97 -172 36
-63 78 -139 93 -168 16 -28 40 -70 54 -92 14 -22 25 -42 25 -44 0 -3 24 -47
53 -98 30 -51 80 -140 112 -198 95 -172 158 -223 275 -224 70 0 56 -6 255 104
l60 33 -42 -44 c-48 -51 -124 -169 -117 -181 8 -13 107 -9 206 8 95 16 178 12
178 -9 0 -7 -63 -47 -139 -90 -167 -93 -184 -106 -217 -163 -54 -92 -53 -169
3 -261 31 -51 173 -303 245 -433 14 -25 76 -135 138 -245 62 -110 124 -220
138 -245 35 -65 80 -109 137 -136 53 -25 125 -31 169 -14 28 10 27 11 41 -72
7 -45 30 -71 56 -63 31 10 132 71 169 103 75 63 339 212 376 212 6 0 15 -11
18 -24 3 -14 31 -46 61 -72 30 -26 55 -50 55 -53 0 -3 -28 -15 -61 -25 -74
-23 -201 -90 -491 -258 -157 -90 -190 -239 -87 -393 15 -22 109 -186 209 -365
329 -587 330 -588 373 -625 24 -20 65 -43 97 -52 83 -24 129 -10 321 97 219
123 288 170 386 264 l83 78 72 2 c70 2 78 4 187 65 63 36 133 79 157 98 25 18
50 33 56 33 7 0 60 -18 118 -39 119 -45 238 -81 266 -81 10 0 25 -4 32 -9 10
-6 -11 -22 -71 -55 -102 -55 -151 -108 -174 -185 -17 -59 -15 -87 22 -336 10
-70 -6 -75 -67 -20 -29 26 -87 64 -128 84 -73 35 -78 36 -195 36 -185 0 -259
-27 -599 -217 -203 -113 -245 -159 -254 -281 -5 -62 6 -99 48 -162 15 -22 64
-107 110 -190 81 -146 127 -227 185 -330 66 -116 161 -285 203 -360 55 -99 82
-129 149 -162 44 -21 63 -25 115 -21 67 4 74 7 208 83 47 26 110 61 140 78 50
28 102 61 198 126 20 13 66 54 102 92 l68 69 68 0 c74 0 62 -4 254 100 149 81
184 137 185 295 l0 99 66 35 67 36 40 -37 c75 -68 161 -95 243 -77 42 9 66 22
248 130 41 24 124 70 183 101 203 107 255 151 279 242 19 69 4 121 -73 261
-157 285 -208 378 -208 382 0 1 12 3 28 3 19 0 33 -9 48 -33 24 -36 152 -258
207 -358 60 -108 130 -158 232 -166 55 -5 66 -2 137 35 220 115 265 154 288
253 18 73 7 139 -37 219 -20 38 -34 72 -31 76 12 11 88 16 100 6 7 -6 69 -27
138 -46 122 -36 128 -36 245 -30 154 8 250 36 384 110 110 61 205 141 267 225
29 39 53 58 132 98 86 43 104 49 159 48 66 0 119 21 278 114 86 50 101 63 135
116 27 42 70 79 171 145 30 20 61 44 68 52 9 11 19 13 37 5 36 -13 106 -11
150 5 74 27 259 136 292 173 47 54 75 150 67 234 -7 74 -7 75 69 113 l47 24
65 -44 c92 -62 162 -77 243 -54 36 10 181 89 262 143 25 16 59 49 75 72 28 42
31 43 90 47 53 3 76 12 175 67 63 36 128 75 146 88 48 36 83 115 83 184 0 67
-17 102 -197 419 -60 107 -123 219 -138 249 -26 52 -26 55 -9 68 41 30 27 51
321 -474 12 -23 23 -48 23 -56 0 -25 61 -106 98 -129 82 -51 152 -59 237 -27
l55 20 0 130 c0 71 -2 129 -4 129 -2 0 -37 -18 -76 -41 -40 -22 -76 -37 -80
-32 -10 9 -177 303 -290 508 -80 145 -245 438 -263 466 -17 28 -2 43 98 98 68
38 102 52 111 45 13 -8 68 -105 402 -702 l97 -173 3 219 2 220 -61 108 c-34
60 -76 134 -92 164 -17 30 -56 102 -89 159 -32 57 -58 105 -58 107 0 2 -8 13
-17 25 -72 87 -163 123 -251 99 -42 -11 -269 -135 -302 -165 -9 -8 -36 -22
-60 -30 -25 -9 -54 -22 -65 -29 -11 -7 -114 -66 -229 -130 -153 -86 -212 -114
-220 -106 -6 7 -11 47 -10 98 2 187 101 365 240 433 57 28 75 32 142 32 50 -1
84 4 97 13 11 8 35 14 53 14 32 0 34 2 29 28 -5 25 0 30 70 71 65 38 122 93
135 131 2 5 28 12 58 15 123 14 184 41 258 113 71 69 97 139 97 262 0 85 -3
101 -29 152 -114 225 -404 277 -590 106 -11 -10 -23 -18 -26 -18 -4 0 -25 33
-47 73 -23 39 -87 153 -143 252 -56 99 -115 203 -131 232 -55 97 -144 150
-238 141 -61 -6 -276 -116 -346 -178 -11 -9 -31 -20 -45 -23 -14 -4 -72 -33
-130 -65 -58 -32 -143 -79 -190 -104 -47 -25 -127 -69 -179 -97 -51 -29 -97
-51 -102 -49 -5 2 -47 59 -94 127 l-85 125 52 26 c87 43 197 109 234 142 44
39 73 96 81 157 9 76 12 68 -212 466 -37 66 -87 156 -112 200 l-44 80 22 18
c12 10 27 16 33 14 17 -5 297 -500 315 -557 43 -138 225 -206 361 -136 167 86
248 144 275 197 13 24 21 27 85 31 131 10 248 85 302 196 29 59 33 78 36 165
4 90 2 102 -24 155 -69 140 -189 215 -344 214 -77 0 -154 -27 -224 -77 -27
-19 -53 -35 -57 -35 -4 0 -35 51 -70 113 -219 391 -273 485 -296 509 -64 67
-188 90 -270 51 -81 -40 -241 -135 -258 -153 -10 -11 -25 -20 -34 -20 -21 -1
-103 -45 -546 -294 -357 -201 -455 -267 -455 -306 0 -18 -39 28 -40 46 0 18
-76 83 -105 90 -14 3 -41 3 -59 0 -20 -4 -37 -2 -41 4 -11 18 -32 11 -67 -21
-22 -21 -107 -61 -262 -125 -189 -78 -235 -93 -262 -88 -19 3 -34 9 -34 13 0
4 17 17 38 28 91 52 145 146 143 247 -1 34 -2 72 -4 85 -2 20 8 31 53 58 30
18 63 33 72 33 9 0 42 -17 72 -39 99 -69 197 -78 293 -28 178 92 239 134 277
186 27 39 39 48 55 44 39 -10 115 18 231 84 63 36 126 75 139 87 39 35 71 114
71 176 -1 57 -11 82 -79 205 -57 102 -167 297 -200 355 -74 130 -85 158 -71
175 31 38 49 15 201 -255 81 -145 151 -276 154 -291 9 -38 70 -106 118 -130
58 -30 146 -36 202 -14 130 49 284 155 321 220 8 15 27 20 86 26 208 20 352
192 333 399 -14 141 -111 267 -236 305 -135 42 -262 22 -359 -55 -21 -16 -44
-30 -52 -30 -8 0 -34 35 -58 78 -24 42 -82 145 -128 227 -156 276 -174 306
-206 330 -86 66 -167 72 -271 20z m235 -367 c91 -162 178 -317 326 -580 24
-43 64 -113 89 -156 25 -43 45 -83 45 -88 0 -5 -19 -20 -43 -33 -118 -67 -163
-91 -172 -91 -6 0 -26 28 -44 63 -35 64 -220 393 -296 527 -23 41 -68 122
-100 180 -32 58 -74 131 -92 163 -19 31 -33 64 -31 73 2 13 189 123 209 124 4
0 53 -82 109 -182z m-388 -99 c26 -46 47 -89 48 -95 0 -5 -70 -49 -155 -98
-85 -48 -155 -92 -155 -99 0 -6 42 -86 94 -177 52 -91 104 -183 116 -205 13
-22 72 -127 131 -234 60 -107 108 -195 107 -196 -2 0 -22 -13 -45 -28 -24 -15
-45 -27 -47 -27 -3 0 -32 -16 -66 -36 -55 -32 -80 -37 -80 -15 0 5 -66 125
-146 267 -80 143 -160 284 -176 314 -64 115 -76 136 -98 173 -25 43 -28 43
-72 18 -18 -10 -86 -48 -150 -85 -64 -36 -121 -66 -126 -66 -9 0 -117 189
-111 194 5 4 144 82 279 158 101 57 191 108 350 196 25 14 88 49 140 79 52 29
99 52 105 50 5 -2 31 -41 57 -88z m1161 -315 c81 -42 104 -126 58 -212 -18
-34 -77 -64 -126 -64 -152 0 -200 198 -65 269 51 27 89 29 133 7z m-2025 -565
c208 -165 386 -308 397 -317 11 -9 59 -48 108 -86 48 -38 87 -72 87 -76 0 -7
-53 -37 -167 -97 l-71 -37 -84 70 c-45 38 -90 75 -99 82 -13 10 -42 -3 -180
-80 -196 -109 -239 -136 -239 -146 0 -5 7 -53 15 -108 23 -150 28 -135 -82
-198 -54 -30 -105 -58 -114 -61 -18 -7 -9 -70 -109 720 -33 258 -60 481 -60
495 0 22 14 34 98 82 53 31 103 57 110 57 8 1 183 -134 390 -300z m334 83 c22
-40 38 -76 35 -79 -7 -6 -48 24 -110 79 l-42 38 25 20 c14 11 31 19 39 17 7
-1 31 -35 53 -75z m-1307 -297 c64 -28 123 -87 166 -167 32 -59 34 -69 34
-158 0 -115 -20 -164 -105 -252 -52 -54 -229 -180 -271 -193 -10 -4 -19 -11
-19 -16 0 -5 22 -49 50 -97 l50 -87 -53 -8 c-28 -4 -90 -14 -136 -22 -47 -8
-86 -13 -86 -12 -4 5 -191 338 -299 529 -64 114 -116 213 -116 220 0 7 79 58
176 112 316 178 466 215 609 151z m3130 -417 c32 -57 109 -193 170 -303 62
-110 143 -254 180 -320 37 -66 81 -145 98 -175 17 -30 36 -64 44 -75 7 -11 13
-23 13 -27 0 -7 -178 -111 -210 -123 -11 -4 -24 10 -44 47 -34 64 -70 129
-101 183 -280 492 -437 776 -431 783 16 15 193 111 207 111 11 1 37 -36 74
-101z m-339 -186 c55 -101 70 -80 -128 -188 -76 -42 -140 -79 -142 -83 -3 -4
96 -187 219 -407 124 -219 225 -403 225 -409 0 -9 -198 -125 -213 -125 -3 0
-23 30 -43 68 -21 37 -79 139 -129 227 -51 88 -136 239 -190 335 -54 96 -99
177 -101 179 -2 2 -73 -35 -158 -83 -86 -47 -160 -86 -165 -86 -8 0 -111 170
-111 183 0 5 224 134 425 247 267 149 381 214 410 231 38 23 43 18 101 -89z
m-3821 53 c205 -52 373 -212 436 -417 31 -100 31 -100 -63 -133 -46 -15 -100
-36 -120 -46 -20 -11 -39 -16 -41 -11 -3 4 -7 30 -11 57 -8 55 -53 156 -89
195 -109 121 -277 160 -411 95 -110 -53 -177 -143 -199 -268 -9 -53 -8 -74 7
-128 28 -104 32 -97 -74 -141 -138 -57 -134 -57 -153 -6 -44 117 -48 290 -8
401 73 207 253 358 486 410 47 11 185 6 240 -8z m1326 -264 c4 -39 13 -81 20
-92 6 -11 8 -24 4 -27 -4 -4 -42 -9 -85 -10 l-78 -4 -28 41 -27 42 24 17 c13
9 50 41 83 70 38 35 61 51 68 44 5 -5 14 -42 19 -81z m1258 -18 c21 -21 31
-38 24 -40 -6 -2 -44 5 -83 17 -39 12 -81 20 -93 20 -43 -4 -41 1 8 20 77 28
101 26 144 -17z m-248 -92 c-13 -23 -5 -49 20 -73 17 -17 39 -97 39 -143 0
-28 -18 -31 -85 -15 -22 6 -80 10 -129 11 l-89 1 51 51 c28 29 66 70 84 92 75
91 113 127 116 112 2 -9 -2 -25 -7 -36z m-117 4 c-10 -8 -27 -15 -36 -15 -9 0
-25 -2 -35 -5 -10 -3 4 6 32 19 51 26 73 27 39 1z m2766 10 c67 -35 92 -140
48 -205 -34 -49 -83 -72 -142 -67 -43 4 -55 10 -88 45 -33 36 -38 47 -38 89 0
70 30 119 90 145 27 12 100 8 130 -7z m-5961 -67 c8 -13 32 -55 53 -95 l38
-71 -32 -20 c-18 -11 -90 -52 -160 -92 -71 -39 -128 -74 -128 -77 0 -5 92
-172 129 -235 l22 -36 -34 -26 c-19 -14 -38 -26 -43 -26 -6 0 -36 -22 -69 -50
-32 -27 -61 -47 -65 -45 -4 2 -35 55 -70 117 -35 62 -70 125 -79 141 -8 15
-21 27 -28 27 -7 0 -81 -39 -165 -86 -175 -100 -152 -103 -223 32 -39 75 -40
76 -20 91 19 14 586 333 592 333 1 0 24 13 50 29 76 46 197 110 208 111 6 0
17 -10 24 -22z m2676 -32 c167 -17 375 -48 375 -56 0 -14 -335 -328 -360 -338
-5 -2 -50 8 -102 22 -51 14 -138 35 -193 46 -55 11 -185 39 -288 60 -103 22
-231 44 -285 50 -102 11 -496 49 -522 50 -27 1 152 60 288 96 82 21 202 42
310 54 97 12 202 25 232 30 69 11 360 4 545 -14z m-1789 -16 c35 -22 74 -91
74 -132 0 -47 -28 -65 -116 -77 -44 -7 -88 -9 -97 -6 -47 19 -61 151 -21 196
39 43 107 51 160 19z m2539 -9 c3 -5 1 -12 -5 -16 -5 -3 -10 1 -10 9 0 18 6
21 15 7z m121 -161 c20 0 345 -145 504 -225 227 -114 310 -179 521 -411 210
-231 355 -433 440 -614 17 -36 37 -78 45 -94 15 -31 19 -59 6 -41 -30 41 -255
213 -447 342 -89 59 -480 260 -585 301 -55 21 -204 85 -314 136 -32 15 -115
49 -185 75 -69 27 -146 58 -171 69 -25 11 -63 26 -85 32 -22 7 -70 26 -107 42
l-68 31 68 66 c38 36 93 85 123 108 30 23 92 80 139 127 66 67 86 83 93 71 4
-8 15 -15 23 -15z m-540 -149 l0 -150 -29 6 c-22 4 -33 1 -43 -11 -11 -16 -15
-16 -42 -2 -27 14 -135 33 -154 28 -24 -6 6 26 129 145 76 73 138 132 138 132
0 1 0 -66 1 -148z m-1436 89 c63 -6 145 -13 183 -16 37 -3 67 -9 67 -12 0 -11
-208 -222 -218 -222 -5 0 -17 11 -25 23 -9 13 -30 38 -49 55 -124 117 -166
154 -190 165 -48 21 -31 30 45 23 39 -3 124 -11 187 -16z m-360 6 c0 -32 -62
-118 -162 -224 -49 -51 -51 -53 -83 -42 -19 6 -44 19 -57 29 -53 42 -200 112
-268 129 l-73 18 59 16 c100 28 145 36 269 48 66 7 126 14 133 16 7 2 21 -1
31 -7 13 -9 24 -8 47 4 25 14 104 24 104 13z m1940 -51 c0 -2 -20 -25 -44 -51
l-44 -45 -7 40 c-4 22 -4 45 0 51 6 10 95 15 95 5z m-1020 -40 c87 -19 169
-35 182 -35 13 0 44 -6 71 -13 l47 -12 -77 -77 c-99 -98 -173 -139 -173 -94 0
16 -88 127 -163 204 -34 34 -58 62 -54 62 5 0 80 -16 167 -35z m2124 -45 c21
-38 35 -70 32 -70 -10 0 -92 59 -114 83 l-23 25 22 16 c13 9 29 16 35 16 6 0
28 -31 48 -70z m-2984 -5 l42 -35 -34 0 c-18 0 -51 -5 -73 -10 -22 -5 -41 -7
-43 -5 -3 3 59 84 65 85 0 0 20 -16 43 -35z m-778 8 c-5 -10 -12 -34 -16 -54
-7 -41 -92 -279 -104 -291 -4 -4 -45 6 -91 23 -46 16 -133 37 -192 46 -60 9
-109 20 -109 24 0 24 459 268 508 269 9 0 10 -5 4 -17z m1338 -10 c0 -5 12
-22 28 -38 15 -17 34 -39 42 -49 14 -18 13 -18 -9 -11 -14 4 -58 7 -99 7 -82
-1 -82 -4 -18 66 28 30 56 42 56 25z m774 -58 l29 -6 -23 -25 -24 -24 -27 32
c-34 40 -36 50 -6 38 12 -5 35 -11 51 -15z m-3508 -250 c83 -148 237 -425 260
-466 2 -3 -12 -37 -30 -75 -19 -38 -47 -99 -64 -136 -17 -38 -33 -68 -36 -68
-4 0 -113 190 -249 435 -58 105 -107 191 -166 292 -22 39 -41 76 -41 81 0 9
211 134 217 129 1 -2 50 -88 109 -192z m1495 171 l53 -23 -69 -23 c-39 -12
-76 -27 -82 -33 -17 -13 -16 -4 4 54 10 27 23 49 29 49 6 0 35 -11 65 -24z
m1825 -3 c7 -10 14 -26 14 -35 0 -9 7 -24 16 -32 13 -14 13 -16 1 -16 -8 0
-17 6 -20 14 -3 7 -22 16 -41 20 -20 4 -36 9 -36 12 0 5 43 52 49 53 2 1 10
-7 17 -16z m234 -225 c0 -151 -2 -168 -17 -168 -9 0 -86 23 -170 52 l-154 52
31 26 c19 15 44 25 63 25 28 0 32 3 32 27 0 21 19 45 88 108 85 78 90 81 108
64 17 -16 19 -33 19 -186z m455 141 c25 -12 45 -24 45 -28 0 -4 -26 -19 -57
-35 -32 -15 -78 -40 -103 -56 -52 -32 -81 -40 -87 -23 -4 12 133 163 149 163
4 0 28 -9 53 -21z m-306 -4 c1 -2 -9 -16 -23 -32 -15 -15 -36 -43 -47 -60 -11
-18 -23 -33 -25 -33 -2 0 -4 32 -4 71 l0 71 48 -7 c26 -4 49 -8 51 -10z m-954
-25 c183 -20 364 -51 433 -72 l43 -13 -38 -36 c-32 -31 -220 -179 -488 -385
-145 -112 -304 -226 -405 -293 -58 -38 -119 -80 -135 -94 -30 -25 -258 -153
-391 -220 -66 -32 -182 -100 -444 -257 -124 -74 -220 -130 -225 -130 -13 0 21
150 59 258 17 47 25 98 29 171 6 117 17 141 49 99 11 -16 23 -28 27 -28 13 0
29 46 21 60 -12 19 -2 37 23 44 13 3 35 29 55 63 18 32 44 78 59 103 33 58
134 213 142 220 3 3 19 24 35 48 16 24 35 46 41 50 7 4 14 12 16 18 6 15 65
87 119 144 25 26 61 65 81 87 l36 39 -23 23 c-29 28 -32 78 -6 97 28 22 101
18 121 -7 l17 -22 21 26 c13 17 33 27 59 30 84 11 505 -4 669 -23z m1550 -90
c55 -22 121 -47 148 -56 57 -20 55 -23 -47 -88 -78 -49 -107 -53 -121 -18 -3
9 -31 58 -61 108 -30 51 -54 95 -54 99 0 4 8 4 18 1 9 -4 62 -25 117 -46z
m-3505 16 c0 -13 -15 -84 -34 -157 -19 -74 -36 -154 -39 -179 l-4 -45 -69 3
c-38 1 -120 -4 -181 -11 -62 -7 -113 -12 -113 -10 0 30 257 302 355 377 68 52
85 56 85 22z m3210 -38 c0 -6 9 -22 21 -34 l20 -22 -55 17 c-56 16 -56 16 -33
33 26 20 47 23 47 6z m-3600 -78 c42 -72 45 -102 13 -114 -9 -4 -17 -5 -18 -4
-1 2 -21 38 -45 81 -34 63 -40 80 -30 92 22 27 39 16 80 -55z m528 30 c34 -7
62 -16 62 -20 0 -4 -39 -34 -87 -66 -49 -31 -91 -62 -95 -68 -17 -25 -16 6 3
79 24 92 25 95 42 91 7 -2 40 -10 75 -16z m2865 -102 c37 -11 67 -24 67 -30 0
-5 -11 -37 -24 -71 -13 -34 -32 -87 -41 -117 -10 -30 -20 -58 -24 -62 -3 -4
-31 11 -61 33 -54 38 -145 95 -165 103 -6 2 -3 15 7 32 11 20 26 30 47 32 26
3 31 8 31 30 0 15 10 39 23 54 24 30 26 30 140 -4z m1007 -38 c69 -29 150 -63
180 -77 l55 -26 -40 -12 c-22 -7 -70 -26 -106 -43 -62 -28 -69 -29 -95 -15
-16 8 -32 17 -36 21 -17 17 -107 214 -96 209 7 -3 69 -29 138 -57z m-289 -38
c-4 -1 -21 3 -37 9 -29 12 -38 15 -61 17 -22 3 -14 19 19 40 l32 21 28 -42
c15 -23 24 -43 19 -45z m-1396 42 c10 -25 15 -70 15 -143 0 -99 -13 -227 -23
-238 -3 -2 -34 7 -69 21 -90 35 -203 65 -277 72 l-63 7 23 19 c13 10 76 58
138 106 63 47 142 110 175 139 34 29 62 53 63 53 2 0 10 -16 18 -36z m-3707
-172 c490 -392 600 -480 623 -496 22 -15 23 -18 10 -58 -7 -24 -15 -57 -18
-75 -4 -26 -15 -36 -64 -63 l-60 -32 -95 81 c-52 45 -99 81 -104 81 -9 0 -339
-183 -381 -211 l-23 -16 17 -129 c10 -71 14 -130 9 -132 -5 -1 -52 -27 -104
-57 -53 -30 -101 -55 -107 -55 -15 0 -16 8 -56 330 -20 157 -53 422 -75 589
-21 167 -36 309 -34 315 4 8 199 125 212 126 1 0 114 -89 250 -198z m4752 120
c36 -9 76 -25 90 -35 13 -9 28 -17 33 -17 4 0 32 -11 60 -24 29 -13 62 -26 75
-30 12 -4 66 -29 120 -55 53 -27 108 -52 122 -56 26 -8 341 -166 350 -176 15
-16 146 -88 266 -145 115 -55 185 -94 290 -162 10 -6 28 -16 39 -21 43 -19
283 -186 395 -276 122 -96 160 -145 160 -200 0 -14 4 -33 10 -43 12 -21 66
-317 80 -437 6 -49 17 -126 25 -170 12 -69 28 -196 51 -404 7 -67 32 -163 78
-301 52 -155 61 -177 106 -275 23 -49 48 -115 56 -145 17 -66 19 -290 3 -393
-24 -152 -129 -394 -228 -526 -31 -40 -66 -87 -78 -104 -35 -48 -152 -167
-164 -167 -6 0 -34 -15 -62 -34 -29 -19 -89 -54 -134 -79 -45 -25 -87 -50 -95
-56 -18 -15 -88 -61 -93 -61 -3 0 -37 -19 -77 -43 -122 -71 -320 -165 -373
-175 -27 -6 -97 -25 -155 -42 -149 -45 -320 -59 -691 -60 -618 0 -955 49
-1454 215 -109 36 -341 131 -500 204 -22 11 -51 22 -65 26 -26 8 -264 123
-315 153 -69 40 -194 129 -255 181 -162 140 -516 522 -635 685 -47 63 -122
196 -140 246 -9 25 -22 54 -30 66 -7 12 -28 58 -45 102 -17 44 -37 85 -44 91
-19 16 -28 101 -20 184 l7 72 18 -67 c29 -103 99 -253 164 -353 178 -267 431
-455 770 -572 l110 -37 310 -3 c277 -2 320 0 400 17 188 41 313 103 435 217
200 185 284 446 245 759 -29 231 -189 545 -381 746 -124 129 -355 328 -383
328 -7 0 -41 13 -75 29 -33 16 -97 36 -141 44 -194 38 -510 54 -555 27 -14 -8
-36 -15 -50 -17 -16 -2 -2 9 38 31 35 19 77 45 95 59 42 31 91 56 139 71 21 6
58 28 81 49 68 61 336 256 452 329 28 18 67 47 88 65 20 18 48 33 61 33 15 0
39 15 63 40 21 22 68 61 105 87 98 70 246 201 385 340 l122 122 63 -42 c35
-22 65 -44 68 -47 7 -9 152 -116 227 -169 52 -36 64 -41 82 -31 12 6 21 18 21
26 0 8 20 65 44 127 24 62 56 153 71 202 15 50 30 94 33 99 5 9 36 4 132 -22z
m-907 -14 l46 -23 -58 -51 -57 -52 0 74 c1 45 5 74 12 74 5 0 31 -10 57 -22z
m3795 -214 c283 -501 432 -771 432 -781 0 -12 -188 -123 -208 -123 -6 0 -43
57 -83 128 -65 114 -111 196 -244 432 -23 41 -65 116 -93 165 -28 50 -73 130
-101 180 -28 49 -51 94 -51 100 0 12 200 125 215 121 6 -1 66 -101 133 -222z
m-1787 58 c112 -57 119 -61 192 -106 40 -24 46 -31 32 -38 -25 -15 -187 -68
-205 -68 -8 0 -32 11 -52 25 -34 23 -38 31 -58 122 -13 54 -25 104 -28 112 -6
17 -7 17 119 -47z m-308 -4 c8 -29 5 -31 -27 -17 -38 18 -33 29 15 38 4 0 9
-9 12 -21z m1648 -45 c8 -16 31 -59 53 -96 21 -37 37 -69 35 -71 -2 -2 -73
-41 -157 -87 -85 -46 -156 -89 -159 -95 -2 -6 57 -121 132 -255 75 -134 137
-248 138 -253 1 -5 -27 -15 -62 -23 -36 -7 -72 -19 -80 -27 -9 -8 -33 -21 -53
-29 l-38 -16 -91 162 c-50 89 -110 195 -133 235 -37 67 -43 73 -67 68 -36 -7
-60 22 -88 104 -12 36 -23 70 -24 77 -2 12 547 333 569 333 6 0 17 -12 25 -27z
m-6233 -78 c-15 -14 -30 -25 -33 -25 -3 0 -5 11 -5 25 0 22 5 25 32 25 l33 0
-27 -25z m2229 -37 c-11 -62 -37 -273 -43 -341 -8 -97 -16 -99 -203 -46 -80
23 -175 44 -210 47 -50 4 -61 7 -49 16 34 24 57 39 163 108 61 40 112 75 115
78 3 3 50 39 105 80 55 41 102 78 103 83 2 4 8 7 14 7 6 0 8 -13 5 -32z
m-2332 -135 c-6 -80 -9 -93 -25 -93 -9 0 -39 -3 -66 -7 -41 -5 -47 -4 -38 8 6
8 16 28 22 46 6 17 32 65 58 105 56 85 60 81 49 -59z m5204 9 c1 -19 -2 -32
-7 -30 -38 17 -111 62 -106 67 3 3 26 13 52 22 46 16 47 15 54 -5 3 -12 6 -36
7 -54z m-2716 40 c42 -2 77 -7 77 -11 0 -7 -74 -72 -163 -145 l-58 -47 5 33
c3 18 11 68 17 111 10 66 14 77 28 71 9 -4 51 -9 94 -12z m2914 -4 c16 -13 42
-32 58 -43 106 -78 115 -86 106 -102 -8 -15 -123 -51 -168 -52 -18 -1 -23 6
-27 42 -13 107 -17 177 -9 177 5 0 23 -10 40 -22z m-7186 -48 c44 -23 96 -80
120 -134 32 -70 22 -164 -23 -228 l-19 -28 73 0 c125 0 210 -57 267 -180 39
-84 37 -174 -7 -262 -59 -120 -150 -192 -490 -383 -98 -55 -104 -57 -117 -39
-7 11 -56 96 -108 189 -52 94 -133 238 -179 320 -47 83 -98 173 -113 200 -15
28 -57 100 -92 162 -34 62 -63 117 -63 122 0 6 19 21 42 34 243 136 303 169
367 197 140 61 260 71 342 30z m9323 -133 c96 -55 99 -182 6 -245 -29 -20 -45
-23 -93 -20 -46 4 -63 10 -87 33 -123 118 26 317 174 232z m-1057 -54 c11 -16
50 -84 88 -153 37 -69 81 -146 97 -172 32 -51 30 -68 -6 -68 -37 0 -58 26
-141 175 -134 239 -123 214 -101 230 28 21 42 19 63 -12z m-927 -18 c0 -41 -9
-43 -57 -11 l-35 24 43 10 c24 5 45 10 47 11 1 1 2 -15 2 -34z m-4700 -25 c39
-39 20 -108 -39 -142 -35 -20 -39 -26 -34 -48 12 -44 9 -74 -7 -78 -14 -2 -39
78 -68 218 -3 15 41 44 93 61 31 11 34 10 55 -11z m4901 -25 c19 -19 39 -35
45 -35 5 0 23 -13 39 -30 21 -22 25 -31 14 -34 -8 -2 -29 -9 -48 -15 -56 -18
-80 -14 -91 15 -12 31 -13 134 -1 134 4 0 23 -16 42 -35z m-4099 -67 c-6 -24
-20 -108 -32 -188 -26 -174 -36 -229 -43 -236 -3 -3 -38 8 -79 25 -78 33 -207
56 -370 66 -54 4 -98 11 -98 15 0 5 26 23 58 41 31 18 68 40 82 50 85 57 482
280 489 274 2 -2 -1 -24 -7 -47z m698 48 c0 -3 -4 -8 -10 -11 -5 -3 -10 -1
-10 4 0 6 5 11 10 11 6 0 10 -2 10 -4z m-1678 -76 c20 -28 34 -114 25 -152
-10 -37 -49 -77 -86 -88 -28 -8 -36 -6 -56 14 -27 27 -40 95 -32 159 12 85
104 127 149 67z m1264 -3 c27 -8 62 -18 77 -22 l29 -6 -34 -22 c-107 -74 -217
-154 -228 -168 -3 -4 -31 -23 -63 -44 l-59 -37 7 59 c7 68 33 231 40 253 4 13
19 14 93 9 48 -3 110 -13 138 -22z m-1446 -56 c0 -11 -12 -23 -31 -31 -26 -11
-30 -17 -26 -39 23 -115 30 -192 18 -204 -18 -18 -26 1 -41 108 -7 52 -17 95
-22 95 -5 0 -20 -7 -33 -16 -23 -15 -25 -15 -31 1 -8 19 -6 21 91 72 70 38 75
39 75 14z m-1038 -100 c62 -54 117 -76 191 -76 38 0 67 -4 67 -10 0 -5 -13
-64 -29 -130 -17 -66 -37 -155 -46 -198 l-17 -78 -53 -30 c-61 -35 -129 -100
-146 -141 -14 -33 -18 -34 -113 -8 -98 26 -263 38 -411 29 -129 -8 -209 -26
-294 -65 -30 -13 -56 -23 -58 -21 -2 2 16 17 39 32 24 16 75 60 113 99 l70 71
70 1 c39 0 81 6 95 13 117 61 250 141 275 167 55 55 69 98 70 207 l0 98 60 35
c33 18 65 34 72 34 7 0 27 -13 45 -29z m861 -89 c22 -139 22 -152 -1 -152 -17
0 -21 16 -34 123 -16 126 -15 137 6 137 7 0 18 -38 29 -108z m-116 -49 c63
-111 70 -131 47 -140 -10 -4 -19 -2 -21 4 -2 5 -9 18 -16 27 -12 16 -16 16
-55 -5 -36 -19 -43 -29 -49 -62 -5 -34 -25 -58 -38 -45 -4 4 41 263 51 296 9
30 35 6 81 -75z m-192 -65 c0 -32 2 -58 6 -58 4 0 10 -11 13 -25 9 -35 -12
-99 -37 -115 -54 -33 -106 -57 -114 -51 -4 3 -10 51 -12 105 -2 55 -7 113 -12
129 -8 27 -5 30 44 53 29 13 66 23 82 22 30 -3 30 -4 30 -60z m6823 34 c31
-11 96 -31 145 -47 67 -21 95 -36 122 -64 l36 -36 -27 -3 c-14 -2 -38 1 -53 6
-14 6 -67 19 -118 28 -80 16 -107 17 -206 7 -170 -17 -285 -48 -415 -110 -94
-46 -127 -68 -196 -134 -46 -43 -86 -79 -88 -79 -8 0 -31 177 -25 193 11 29
259 154 397 200 56 18 190 45 250 50 99 8 123 6 178 -11z m-5918 -159 c-21
-82 -48 -206 -60 -276 -30 -181 -24 -170 -90 -144 -66 26 -71 44 -42 133 11
33 23 82 27 109 3 28 10 66 15 85 5 19 16 65 26 101 16 65 16 66 82 106 37 22
70 39 73 37 4 -2 -10 -70 -31 -151z m359 11 c41 -8 76 -16 78 -18 2 -2 -24
-23 -58 -46 -35 -24 -68 -46 -73 -51 -6 -5 -60 -45 -121 -90 -60 -45 -112 -85
-115 -89 -3 -3 -22 -19 -42 -34 -21 -16 -38 -35 -38 -44 0 -8 -2 -13 -5 -10
-6 6 50 310 64 348 5 14 11 32 14 40 4 12 24 14 113 12 60 -1 142 -9 183 -18z
m686 -112 c288 -48 455 -137 680 -366 66 -67 149 -162 184 -211 72 -102 159
-277 189 -380 12 -38 28 -95 37 -125 18 -62 33 -300 19 -300 -5 0 -10 48 -12
108 -5 163 -32 254 -139 467 -65 128 -94 172 -179 275 -175 211 -501 437 -686
475 -109 23 -149 26 -323 25 -172 -1 -240 -12 -381 -61 -100 -35 -142 -57
-246 -135 -106 -79 -164 -142 -224 -244 -95 -160 -136 -298 -138 -462 -1 -119
-17 -113 -23 9 -8 143 27 286 108 446 51 104 59 128 34 107 -27 -22 -28 -2 -2
24 14 14 31 34 36 43 9 16 10 16 11 -4 0 -13 4 -23 8 -23 5 0 38 29 74 65 39
39 73 65 86 65 12 0 40 18 64 41 56 53 156 119 172 113 6 -2 54 10 106 27 155
52 322 58 545 21z m4775 2 c0 -3 -20 -24 -45 -46 -58 -52 -129 -166 -150 -243
-13 -43 -16 -79 -12 -133 l6 -74 -72 9 c-115 13 -276 8 -326 -11 -53 -20 -57
-16 -67 64 l-7 54 63 58 c86 80 350 240 490 299 60 26 120 37 120 23z m-4940
-95 c168 -4 247 -46 430 -229 126 -125 193 -222 240 -343 30 -76 94 -306 88
-313 -2 -2 -21 -1 -41 3 -32 5 -37 9 -37 32 0 39 -63 212 -105 289 -104 190
-245 325 -425 410 -70 34 -168 62 -212 62 -15 0 -30 5 -33 11 -16 25 -55 29
-113 10 -31 -11 -77 -23 -102 -26 -61 -10 -146 -42 -195 -74 -22 -14 -74 -43
-115 -63 -94 -47 -179 -113 -233 -183 -23 -30 -43 -52 -45 -50 -6 6 79 138
112 173 51 55 197 164 266 198 117 58 324 108 405 98 17 -2 68 -4 115 -5z
m470 -119 c67 -40 166 -108 196 -135 6 -5 33 -28 60 -50 85 -68 187 -178 239
-255 28 -41 52 -77 55 -80 10 -10 100 -197 124 -257 75 -190 90 -555 28 -668
-36 -65 -107 -149 -169 -200 -131 -108 -325 -187 -433 -177 l-44 5 54 16 c142
45 329 148 389 216 94 108 153 327 131 486 -16 111 -72 266 -160 444 -99 201
-165 301 -244 367 -33 29 -122 114 -196 189 -74 74 -151 148 -170 163 l-35 27
50 -23 c28 -13 84 -43 125 -68z m-2000 23 c-1 -5 -9 -26 -20 -48 -11 -22 -20
-51 -20 -65 0 -14 -9 -61 -20 -105 -12 -45 -23 -134 -27 -204 -5 -113 -4 -125
12 -138 27 -19 -1 -16 -30 3 -24 16 -35 37 -16 32 10 -3 11 1 11 30 -1 15 -3
14 -19 -5 l-18 -21 -32 20 c-25 16 -31 27 -29 47 4 35 34 40 42 7 4 -15 11
-26 16 -26 10 0 35 79 27 86 -2 3 -18 -3 -35 -13 -41 -24 -81 -9 -106 38 -19
35 -19 38 -3 63 17 26 47 36 47 15 0 -6 -7 -17 -15 -25 -12 -12 -13 -20 -3
-37 23 -44 45 -47 86 -12 20 16 34 43 46 83 21 77 20 82 -9 49 -43 -45 -105
-33 -105 22 0 29 36 71 62 71 25 0 23 -23 -4 -35 -13 -6 -24 -20 -26 -33 -3
-20 0 -23 20 -20 27 4 78 74 104 145 9 27 24 56 32 66 16 17 32 23 32 10z
m-1015 -183 c118 -34 233 -80 415 -167 144 -68 177 -90 269 -178 283 -269 386
-384 441 -491 72 -138 83 -176 84 -296 1 -60 4 -108 9 -108 17 0 4 -42 -29
-91 -47 -70 -60 -79 -107 -79 -35 0 -47 7 -96 56 -68 68 -105 86 -262 124 -68
16 -164 43 -215 60 -180 58 -372 86 -494 71 -41 -5 -140 -17 -220 -26 -80 -10
-153 -21 -163 -26 -9 -6 -46 -12 -82 -16 -102 -9 -85 17 55 87 143 72 324 130
512 166 115 22 309 20 473 -5 119 -18 176 -31 298 -68 9 -3 17 0 17 6 0 24
-89 201 -112 223 -14 13 -94 91 -179 173 -85 83 -176 168 -204 190 -27 22 -59
48 -70 58 -34 31 -116 74 -200 105 -44 17 -116 44 -160 61 -140 54 -234 72
-374 72 -206 0 -331 -23 -458 -83 -45 -22 -91 -38 -103 -36 -21 3 -21 4 8 44
52 72 169 127 354 168 62 14 133 29 158 35 25 6 108 9 185 6 120 -3 156 -8
250 -35z m8068 -187 c26 -48 45 -92 43 -99 -3 -7 -65 -45 -138 -84 -73 -40
-143 -79 -156 -87 l-23 -14 37 -67 c20 -37 60 -107 89 -157 29 -49 97 -169
151 -265 54 -96 117 -208 140 -249 24 -41 41 -77 39 -81 -9 -14 -206 -121
-216 -118 -6 2 -25 30 -43 63 -18 33 -56 101 -83 150 -28 50 -112 200 -187
335 -76 135 -141 249 -146 254 -4 4 -64 -23 -133 -63 -69 -39 -131 -72 -138
-73 -15 -3 -14 42 2 103 10 42 66 101 118 125 19 9 82 25 140 34 58 10 114 21
124 25 30 12 19 47 -29 92 -25 25 -44 46 -42 47 6 5 199 116 202 116 2 0 41
22 87 50 46 27 91 50 99 50 9 0 35 -37 63 -87z m-4782 -65 c61 -84 161 -266
197 -358 106 -268 116 -303 116 -405 -1 -88 -22 -181 -62 -265 -28 -60 -153
-193 -193 -205 -13 -4 -31 -13 -39 -20 -22 -19 -154 -74 -230 -96 -117 -35
-427 -50 -394 -20 5 5 32 16 59 26 157 55 196 72 257 112 81 53 179 157 231
244 39 67 111 275 105 306 -2 12 -16 20 -43 24 -22 3 -66 15 -98 27 -32 12
-64 22 -72 22 -8 0 -26 10 -41 23 -14 12 -49 34 -77 48 -55 27 -70 57 -48 98
26 48 155 63 301 35 94 -17 103 -14 102 43 -1 46 -76 312 -103 364 -17 35 -24
59 -16 59 2 0 23 -28 48 -62z m4068 -68 c172 -25 211 -34 243 -55 71 -47 50
-55 -121 -41 -201 16 -406 -16 -582 -88 -19 -8 -25 15 -35 134 l-7 80 149 0
c113 0 198 -7 353 -30z m-6180 -4 c-10 -9 -89 -46 -89 -41 0 6 72 44 84 45 5
0 7 -2 5 -4z m-1298 -56 c66 -17 139 -38 162 -46 213 -81 420 -182 495 -243
113 -91 120 -106 33 -65 -30 13 -118 41 -195 61 -126 33 -154 37 -261 37 -107
-1 -130 -4 -210 -31 -49 -17 -95 -28 -102 -26 -9 4 -13 32 -13 96 0 90 -15
154 -47 202 -17 26 -16 45 3 45 8 0 69 -14 135 -30z m-300 -92 c12 -23 30 -66
40 -94 l18 -53 -32 -18 c-18 -10 -49 -27 -69 -38 -21 -11 -38 -23 -38 -26 0
-4 25 -51 55 -104 30 -54 55 -100 55 -104 0 -3 -17 -21 -38 -41 -45 -41 -96
-106 -113 -143 -7 -15 -15 -27 -19 -27 -3 0 -28 39 -55 88 -64 114 -76 136
-152 270 -34 62 -63 118 -63 125 0 12 40 37 205 128 28 15 70 39 95 53 65 37
85 34 111 -16z m7624 -162 c-3 -17 -9 -62 -12 -99 -6 -80 -18 -89 -65 -54 -49
37 -134 77 -162 77 -22 0 -55 34 -44 45 2 2 50 14 108 28 58 14 116 30 130 35
38 14 53 4 45 -32z m-5178 -208 c36 -34 32 -91 -11 -134 -28 -28 -42 -34 -76
-34 -52 0 -76 13 -95 51 -15 28 -15 33 2 67 33 67 133 95 180 50z m5090 -79
c108 -58 183 -118 183 -145 0 -28 -29 -25 -102 9 -40 19 -91 40 -114 47 -33
10 -43 19 -58 52 -32 75 -2 87 91 37z m418 -59 c19 -38 33 -70 30 -70 -9 0
-113 79 -121 91 -7 12 29 49 47 49 5 0 25 -31 44 -70z m-4258 16 c7 -6 -30
-122 -61 -190 -36 -79 -71 -131 -135 -199 -38 -41 -121 -103 -121 -91 0 4 26
37 59 73 32 37 77 95 99 130 43 66 100 201 109 259 5 28 9 32 27 26 11 -4 22
-7 23 -8z m3867 -190 c76 -62 204 -116 276 -116 30 0 62 -20 207 -132 95 -73
171 -137 169 -143 -1 -5 -52 -38 -112 -71 -74 -42 -114 -59 -124 -53 -8 4 -53
39 -100 78 -88 74 -102 80 -135 57 -11 -7 -47 -28 -80 -46 -33 -18 -80 -44
-104 -58 l-44 -26 6 40 c4 21 10 76 13 121 7 81 8 83 40 103 19 10 34 23 34
28 0 6 -15 21 -33 35 -30 23 -34 32 -44 104 -6 43 -14 86 -18 96 -11 25 3 21
49 -17z m-7372 -57 c9 -5 29 -32 44 -59 16 -30 34 -50 44 -50 22 0 30 -11 63
-85 47 -108 47 -108 -68 -175 -55 -33 -107 -59 -115 -59 -9 -1 -39 43 -74 107
-33 59 -84 149 -113 200 -29 51 -53 97 -53 101 0 21 236 38 272 20z m718 -52
c58 -11 62 -14 35 -19 -16 -4 -72 -16 -122 -27 -51 -11 -105 -29 -120 -39 -85
-59 -177 -105 -210 -106 -35 -1 -36 0 -49 51 -7 29 -23 71 -34 94 -38 73 -39
73 213 66 122 -4 251 -13 287 -20z m356 -156 c-15 -23 -135 -82 -208 -102
-105 -28 -312 -119 -338 -149 -3 -3 -45 -26 -93 -50 -49 -25 -109 -62 -133
-84 -25 -21 -47 -37 -49 -34 -7 7 8 22 105 104 166 140 165 139 355 223 39 17
90 35 115 41 25 6 86 21 135 35 99 26 119 29 111 16z m1719 -241 c3 -5 23 -10
43 -11 20 0 31 -3 24 -6 -21 -8 -123 7 -117 18 8 12 42 12 50 -1z m-2038 -6
c-3 -3 -12 -4 -19 -1 -8 3 -5 6 6 6 11 1 17 -2 13 -5z m6463 -317 c0 -16 -9
-28 -25 -35 -25 -11 -25 -11 -14 11 13 25 30 47 35 47 2 0 4 -11 4 -23z
m-6178 -97 c22 -25 51 -61 66 -80 15 -19 51 -58 80 -86 61 -58 62 -69 12 -160
l-28 -50 57 4 c31 2 74 -1 96 -7 176 -47 269 -276 179 -441 -36 -67 -122 -153
-211 -212 -74 -50 -369 -218 -381 -218 -4 0 -40 60 -81 133 -41 72 -113 202
-161 287 -48 85 -101 180 -118 210 -16 30 -71 127 -120 214 -50 87 -88 164
-86 170 7 15 342 199 422 231 83 33 155 52 200 50 28 -1 42 -9 74 -45z m5963
-190 c-22 -22 -44 -40 -49 -40 -6 0 10 20 34 45 24 24 46 42 49 40 2 -3 -13
-23 -34 -45z m-5288 -421 c7 -7 46 -31 88 -54 l77 -42 -73 -42 c-40 -23 -78
-43 -83 -44 -11 -2 -33 101 -35 161 -1 33 7 40 26 21z m1378 -449 c20 -16 67
-110 56 -110 -6 0 -11 4 -11 8 0 5 -11 14 -25 20 -14 6 -44 29 -67 51 -24 21
-52 41 -63 45 -11 3 7 3 39 0 33 -2 65 -9 71 -14z m445 -35 c58 -8 110 -15
117 -15 14 0 119 -176 246 -410 16 -30 33 -59 37 -65 26 -35 71 -129 67 -138
-6 -17 -196 -119 -210 -114 -7 3 -45 65 -86 138 -78 140 -121 217 -188 334
-22 39 -66 118 -98 178 l-57 107 34 0 c18 0 80 -7 138 -15z m-570 -221 c135
-107 254 -203 265 -212 11 -10 49 -40 85 -67 36 -27 71 -55 78 -62 8 -7 30
-26 50 -41 21 -15 39 -29 42 -32 3 -3 49 -41 103 -84 54 -43 96 -83 95 -88 -5
-13 -205 -128 -222 -128 -6 0 -52 34 -103 75 -50 41 -98 75 -106 75 -11 0
-379 -201 -396 -217 -3 -2 3 -61 13 -130 l17 -127 -23 -18 c-13 -10 -26 -18
-30 -18 -3 0 -41 -20 -82 -45 -42 -25 -81 -45 -86 -45 -5 0 -12 15 -15 33 -19
108 -152 1203 -147 1209 12 12 197 117 207 118 6 0 120 -88 255 -196z m1648
84 c35 -60 61 -112 57 -118 -7 -11 -199 -120 -211 -120 -9 0 -176 300 -182
326 -3 10 20 14 105 17 183 6 159 17 231 -105z m-2564 -442 c29 -17 60 -48 84
-83 31 -48 37 -65 40 -124 4 -60 1 -74 -25 -122 l-30 -55 71 1 c141 1 239 -79
281 -227 30 -103 2 -208 -81 -304 -46 -54 -168 -147 -259 -197 -159 -87 -182
-99 -217 -122 -66 -41 -52 -55 -196 202 -104 186 -92 166 -279 498 -80 142
-146 265 -147 275 -1 19 292 189 416 240 105 44 141 52 224 48 57 -2 82 -9
118 -30z"/>
<path d="M5960 9193 c0 -5 11 -71 24 -148 13 -77 27 -166 31 -198 4 -31 12
-60 17 -63 9 -6 220 106 246 131 10 9 3 20 -39 56 -29 24 -101 86 -160 137
-103 89 -119 100 -119 85z"/>
<path d="M5070 8786 c-44 -16 -149 -70 -173 -88 -18 -13 -17 -16 13 -69 18
-29 48 -83 67 -119 53 -99 47 -97 140 -43 132 78 173 122 173 186 0 48 -32
108 -70 130 -33 20 -101 21 -150 3z"/>
<path d="M3640 6310 l0 -45 15 29 c14 27 14 31 0 45 -13 14 -15 11 -15 -29z"/>
<path d="M1630 6748 c0 -18 62 -402 66 -406 5 -7 254 138 254 147 0 4 -48 48
-107 98 -60 50 -128 110 -153 132 -48 43 -60 49 -60 29z"/>
<path d="M8105 5981 c-43 -20 -61 -36 -111 -97 -18 -22 -48 -59 -68 -83 -109
-131 -221 -398 -246 -586 -5 -38 -12 -81 -15 -95 -12 -53 -16 -343 -6 -451 14
-159 74 -323 167 -455 84 -119 164 -163 314 -171 149 -8 299 49 385 147 22 25
43 47 46 50 4 3 17 25 29 50 20 39 25 69 34 228 9 173 6 253 -19 514 -20 198
-137 540 -259 756 -20 35 -36 70 -36 77 0 21 -69 104 -100 120 -38 20 -66 19
-115 -4z m95 -56 c17 -9 30 -19 30 -23 0 -4 -24 -18 -53 -32 -34 -15 -84 -56
-143 -115 -84 -83 -97 -102 -152 -216 -101 -205 -106 -238 -107 -604 0 -294 1
-315 24 -400 29 -111 99 -258 151 -318 28 -32 59 -53 107 -73 90 -37 97 -45
32 -37 -98 11 -172 62 -234 162 -41 66 -104 244 -122 346 -22 116 -21 364 1
540 31 247 151 527 283 663 7 8 26 30 41 49 28 37 77 73 100 73 7 0 26 -7 42
-15z m102 -164 c32 -59 37 -73 22 -66 -55 22 -184 24 -184 3 0 -14 37 -46 61
-53 26 -8 111 -138 148 -224 40 -95 39 -99 -6 -23 -21 35 -62 87 -93 116 -52
50 -90 69 -234 120 -39 14 195 214 238 203 4 -2 26 -36 48 -76z m12 -122 c74
-34 177 -243 217 -444 4 -22 15 -74 24 -115 30 -140 37 -632 11 -719 -3 -9 -7
-29 -10 -46 -7 -40 -64 -90 -163 -142 -44 -24 -83 -43 -87 -43 -16 0 -2 27 40
73 88 98 174 311 174 431 l0 63 -47 20 c-73 31 -147 94 -175 152 -29 58 -27
95 8 117 21 14 26 14 59 -2 20 -9 58 -39 83 -65 47 -49 65 -58 77 -39 3 5 -8
90 -26 187 -42 235 -105 414 -185 524 -45 62 -45 68 0 48z m-283 -570 c6 -12
9 -40 6 -63 -7 -48 -53 -96 -93 -96 -30 0 -71 38 -80 76 -6 23 -2 32 22 51 69
56 125 68 145 32z m408 -577 c-51 -156 -102 -240 -183 -307 l-43 -35 -53 16
-53 16 32 19 c18 11 67 54 110 97 79 78 86 90 192 317 l24 50 3 -38 c2 -24 -9
-75 -29 -135z"/>
<path d="M7815 3828 c-71 -39 -135 -144 -135 -221 0 -56 21 -110 55 -144 36
-36 73 -42 120 -21 35 16 92 105 105 164 13 57 3 215 -14 226 -17 12 -108 9
-131 -4z"/>
<path d="M6795 3642 c-65 -41 -83 -117 -46 -197 28 -62 103 -130 155 -144 105
-26 147 -9 166 70 27 111 -11 190 -118 247 -78 41 -119 48 -157 24z"/>
<path d="M8185 2693 c-51 -33 -49 -32 -42 -39 7 -7 97 45 97 57 0 15 -13 11
-55 -18z"/>
<path d="M686 6319 c-36 -9 -171 -71 -188 -88 -10 -9 110 -221 124 -221 20 0
133 68 164 99 49 48 61 85 43 134 -23 65 -74 92 -143 76z"/>
<path d="M819 5908 c-56 -29 -103 -58 -106 -64 -4 -10 123 -244 133 -244 9 0
186 111 202 127 58 57 67 116 26 176 -51 76 -115 77 -255 5z"/>
<path d="M3476 6285 c-10 -8 -23 -16 -28 -17 -5 -2 -3 -20 4 -40 l13 -37 33
20 c31 20 38 41 26 73 -8 20 -23 20 -48 1z"/>
<path d="M3279 6171 c-19 -16 -24 -29 -24 -69 0 -98 53 -136 95 -67 22 36 21
74 -4 120 -22 39 -35 42 -67 16z"/>
<path d="M2836 5910 c-8 -24 -13 -90 -6 -90 3 1 14 6 26 13 21 12 21 13 3 52
-11 26 -20 35 -23 25z"/>
<path d="M2623 5847 c-29 -9 -32 -13 -31 -48 l0 -38 34 17 c34 16 55 56 38 71
-5 4 -23 4 -41 -2z"/>
<path d="M2622 5732 c-17 -13 -22 -26 -20 -55 2 -20 4 -37 5 -37 1 0 13 4 27
10 33 12 59 53 51 80 -8 24 -32 25 -63 2z"/>
<path d="M2480 2908 c-45 -23 -84 -47 -86 -53 -4 -10 101 -211 115 -219 13 -8
157 84 189 121 31 34 33 43 29 86 -6 72 -44 107 -113 107 -42 0 -69 -8 -134
-42z"/>
<path d="M2723 2540 c-54 -27 -104 -54 -112 -59 -11 -7 0 -33 54 -127 37 -66
69 -121 71 -123 4 -4 77 37 151 86 54 35 96 81 108 121 10 34 -12 87 -51 122
-53 46 -99 42 -221 -20z"/>
<path d="M4470 1692 c0 -12 4 -43 10 -69 5 -26 19 -112 31 -190 12 -79 26
-143 32 -143 10 0 219 114 244 132 9 7 2 18 -25 41 -20 18 -39 34 -42 37 -4 4
-131 112 -232 198 -16 14 -18 13 -18 -6z"/>
<path d="M3431 1224 c-50 -25 -91 -51 -91 -59 0 -8 10 -31 21 -52 12 -21 37
-66 56 -100 19 -35 39 -63 45 -63 5 0 41 18 79 41 74 44 125 95 135 134 9 35
-13 91 -47 120 -46 38 -90 33 -198 -21z"/>
<path d="M3771 900 c-36 -9 -162 -71 -200 -99 l-24 -18 58 -104 c86 -155 68
-145 159 -92 43 24 100 66 127 92 41 40 49 53 49 85 0 94 -77 156 -169 136z"/>
<path d="M9064 10539 c-54 -28 -103 -55 -107 -59 -11 -10 111 -230 131 -238 8
-3 28 3 46 13 92 54 167 108 187 137 41 58 21 145 -41 182 -52 30 -107 21
-216 -35z"/>
<path d="M10570 10185 c-165 -92 -212 -141 -231 -240 -7 -37 -1 -87 33 -303 6
-40 8 -75 5 -78 -3 -3 -26 15 -52 41 -100 98 -193 135 -338 135 -109 0 -187
-17 -305 -66 -111 -46 -436 -230 -475 -269 -40 -40 -77 -121 -77 -171 0 -71
-14 -44 298 -599 53 -93 112 -199 132 -235 20 -36 65 -116 100 -178 97 -174
152 -216 278 -214 57 1 60 3 307 142 164 92 240 146 334 237 l75 72 71 3 70 3
3 123 c3 130 1 135 -44 106 -13 -9 -28 -14 -31 -10 -7 6 -166 1237 -161 1241
41 30 208 114 221 111 15 -4 17 6 17 110 l0 114 -47 0 c-41 0 -68 -11 -183
-75z m-469 -693 c129 -67 179 -235 104 -346 -13 -20 -23 -36 -22 -37 1 0 34
-2 72 -3 123 -3 202 -56 257 -172 41 -88 46 -149 18 -226 -35 -97 -95 -168
-212 -251 -89 -62 -388 -229 -402 -224 -6 2 -65 101 -130 218 -66 118 -154
275 -196 349 -241 426 -244 431 -229 445 19 19 244 146 346 196 172 84 299
101 394 51z"/>
<path d="M9830 9251 c-57 -22 -143 -73 -143 -84 0 -5 26 -56 58 -113 40 -71
63 -103 73 -99 54 21 157 93 182 127 34 47 36 62 15 116 -28 69 -96 89 -185
53z"/>
<path d="M10108 8900 c-41 -12 -208 -103 -208 -113 0 -10 101 -192 123 -221
13 -18 15 -18 48 -1 73 38 169 107 194 138 29 39 32 84 9 130 -36 68 -90 90
-166 67z"/>
<path d="M0 9865 l0 -46 30 16 c17 9 30 19 30 23 0 5 -13 18 -30 30 l-30 23 0
-46z"/>
<path d="M10725 8026 c-65 -21 -184 -75 -280 -129 -49 -28 -126 -70 -170 -95
-147 -81 -200 -155 -193 -272 3 -65 7 -72 228 -465 346 -618 369 -656 403
-686 18 -16 44 -33 60 -38 l27 -10 0 159 0 158 -79 139 c-43 76 -142 253 -221
393 -78 140 -156 279 -172 308 -17 29 -28 59 -25 66 3 7 38 32 79 54 40 22
126 69 191 104 64 36 142 73 172 84 l55 18 0 113 c0 127 2 123 -75 99z"/>
<path d="M0 7495 l0 -157 38 27 c111 83 135 128 104 199 -23 50 -53 74 -106
83 l-36 6 0 -158z"/>
<path d="M10707 7531 c-37 -21 -70 -40 -73 -43 -6 -6 90 -184 111 -207 8 -8
21 -10 34 -6 20 6 21 13 21 151 0 109 -3 144 -12 144 -7 -1 -43 -18 -81 -39z"/>
<path d="M0 5293 l0 -110 40 -6 c76 -10 130 -68 130 -140 0 -78 -52 -137 -132
-151 l-38 -7 0 -111 0 -110 57 6 c82 10 192 65 244 124 69 78 84 120 84 242 0
96 -2 110 -29 163 -16 31 -44 75 -62 95 -42 50 -150 100 -232 108 l-62 7 0
-110z"/>
<path d="M85 4283 c-11 -3 -35 -12 -52 -20 l-33 -15 0 -124 c0 -68 3 -124 7
-124 3 0 35 16 70 35 35 19 68 35 73 35 5 0 44 -62 86 -137 42 -76 105 -187
139 -248 247 -436 345 -613 345 -621 0 -8 -199 -124 -213 -124 -5 0 -128 212
-218 375 -62 112 -269 481 -278 495 -7 10 -10 -59 -10 -209 l-1 -224 107 -191
c58 -105 126 -227 150 -270 25 -43 56 -94 71 -113 62 -78 195 -107 285 -62
147 74 241 135 283 184 45 52 46 52 114 57 120 9 247 100 301 215 19 39 23 66
24 143 0 88 -2 100 -34 164 -18 37 -47 84 -65 104 -62 70 -236 123 -334 101
-53 -12 -129 -49 -171 -84 -17 -15 -37 -25 -44 -22 -6 3 -68 106 -136 229
-194 350 -219 388 -273 421 -36 22 -62 30 -110 33 -35 1 -72 0 -83 -3z m963
-813 c66 -40 89 -116 56 -186 -45 -95 -187 -112 -248 -31 -61 81 -32 185 64
229 31 14 95 8 128 -12z"/>
<path d="M10775 3641 c-6 -5 -37 -23 -70 -41 -33 -18 -207 -115 -386 -216
-180 -101 -332 -184 -339 -184 -51 0 -150 -102 -165 -169 -6 -27 -6 -27 -88
-27 -89 1 -69 9 -277 -107 -154 -85 -189 -164 -166 -369 9 -80 4 -83 -74 -42
-57 30 -189 49 -280 41 -76 -7 -204 -43 -270 -76 -77 -39 -376 -207 -431 -243
-65 -43 -100 -103 -107 -183 l-5 -65 -131 0 c-194 0 -319 -32 -465 -119 -85
-50 -225 -182 -276 -260 l-40 -60 -81 6 c-97 7 -111 1 -342 -131 -294 -168
-581 -324 -618 -336 -20 -7 -53 -27 -73 -44 -20 -18 -79 -55 -132 -83 -179
-95 -221 -124 -254 -177 -27 -44 -30 -58 -30 -126 0 -74 1 -79 51 -161 29 -46
61 -103 73 -127 22 -43 22 -43 2 -32 -22 11 -214 162 -246 193 -11 11 -44 31
-73 44 -44 21 -65 24 -115 21 -54 -3 -79 -13 -190 -73 -70 -39 -144 -85 -163
-103 -70 -66 -86 -143 -62 -309 l11 -83 114 0 c112 0 113 0 109 23 -3 12 -10
64 -17 116 -11 94 -11 94 12 112 13 10 27 19 30 19 4 0 38 18 75 40 38 22 76
40 85 40 9 0 115 -79 235 -175 l219 -175 208 0 c114 0 207 2 207 5 0 3 -11 22
-24 43 -46 73 -326 579 -326 589 0 6 19 22 43 36 75 44 157 87 166 87 5 0 44
-62 86 -137 43 -76 90 -158 104 -183 14 -25 39 -70 56 -101 16 -30 66 -119
109 -197 l80 -142 129 0 128 0 -42 77 c-23 43 -56 103 -74 133 -86 149 -145
257 -145 268 0 10 30 32 43 32 3 0 69 -115 148 -255 l143 -255 124 0 c111 0
123 2 118 16 -4 10 -39 74 -78 143 -39 69 -112 198 -161 286 -49 88 -110 196
-135 240 -25 44 -50 90 -56 103 -15 31 -28 27 -194 -68 -78 -44 -145 -80 -149
-80 -11 1 -112 183 -107 192 4 6 112 69 374 215 69 39 203 114 297 168 95 53
180 98 190 99 12 1 33 -27 69 -89 62 -107 75 -86 -122 -195 -75 -41 -138 -80
-141 -86 -4 -11 70 -145 354 -647 52 -93 91 -172 87 -177 -5 -4 -40 -25 -79
-46 -150 -81 -156 -74 66 -74 l197 0 15 38 c41 104 32 149 -59 313 -35 64 -64
121 -64 128 0 6 23 -5 50 -24 81 -57 161 -93 277 -126 102 -29 114 -31 223
-24 113 6 236 31 289 58 37 19 141 77 172 96 55 34 133 108 185 177 56 74 114
176 114 200 0 20 15 17 58 -10 87 -57 169 -56 281 6 248 136 284 176 285 306
0 45 -8 69 -57 163 -32 61 -57 112 -55 113 2 1 38 30 80 64 43 34 82 62 87 62
11 0 21 -36 21 -81 0 -101 81 -213 173 -238 67 -19 147 -9 205 26 26 16 73 42
106 58 32 17 80 50 107 73 41 37 52 55 70 114 17 54 20 84 15 132 -3 33 -2 66
2 72 4 6 32 25 62 42 l56 31 64 -43 c83 -55 127 -69 203 -64 54 4 78 13 187
74 l125 71 3 278 c1 153 -2 283 -6 289 -5 6 -23 36 -39 66 -16 30 -81 145
-143 255 -63 110 -120 212 -128 228 -7 15 -18 27 -23 27 -5 0 -77 -38 -159
-85 -82 -47 -154 -85 -159 -85 -10 0 -111 170 -111 186 0 10 10 16 205 124
175 97 289 161 385 217 41 23 99 55 128 70 l52 27 0 123 c0 117 -4 134 -25
114z m-694 -1142 c200 -160 378 -302 394 -315 17 -14 69 -55 117 -92 48 -37
89 -72 91 -78 5 -11 -190 -126 -223 -132 -8 -1 -55 31 -105 72 -49 42 -96 76
-104 76 -16 0 -367 -194 -389 -214 -11 -11 -10 -35 3 -136 9 -68 12 -127 8
-131 -4 -4 -39 -25 -78 -47 -38 -21 -84 -47 -102 -58 -17 -10 -34 -16 -37 -13
-7 7 -16 68 -91 664 -36 281 -67 522 -70 538 -3 19 1 33 15 45 25 21 181 110
196 111 6 1 174 -130 375 -290z m305 143 c16 -10 87 -152 80 -159 -3 -3 -14 3
-23 13 -10 11 -42 37 -70 58 -59 42 -64 56 -30 79 26 19 28 19 43 9z m-1253
-372 c106 -53 186 -181 194 -311 5 -71 3 -82 -24 -141 -17 -34 -47 -82 -67
-105 -43 -49 -158 -137 -241 -183 -33 -18 -62 -35 -65 -37 -5 -5 14 -41 112
-216 43 -76 78 -142 78 -146 0 -4 -35 -27 -77 -51 -43 -24 -92 -52 -109 -62
-37 -22 -31 -28 -106 107 -31 55 -156 277 -277 493 -122 216 -221 394 -221
396 0 2 46 30 103 62 56 31 127 72 158 91 72 42 155 79 244 109 97 33 227 30
298 -6z m-1051 -544 c269 -58 469 -308 471 -591 1 -162 -55 -297 -173 -415
-125 -126 -277 -190 -451 -190 -163 0 -290 53 -409 170 -60 59 -85 93 -117
160 -23 47 -47 110 -54 140 -19 80 -14 222 9 297 96 304 416 494 724 429z"/>
<path d="M9753 2433 c2 -16 17 -110 33 -210 16 -108 32 -183 39 -183 9 0 167
86 233 127 l22 14 -37 32 c-48 41 -76 66 -191 166 -51 44 -95 81 -99 81 -3 0
-3 -12 0 -27z"/>
<path d="M8850 2041 c-53 -20 -180 -90 -180 -98 0 -13 146 -263 153 -263 17 0
151 83 189 118 75 68 86 120 38 195 -44 70 -107 85 -200 48z"/>
<path d="M7795 1466 c-76 -36 -130 -88 -167 -164 -30 -61 -33 -75 -33 -157 0
-81 4 -96 33 -155 53 -108 131 -176 236 -206 117 -33 234 -4 326 82 160 149
138 418 -45 556 -68 51 -122 68 -219 67 -63 0 -92 -5 -131 -23z m224 -234 c38
-31 65 -94 56 -132 -11 -44 -53 -89 -95 -101 -36 -11 -42 -10 -87 19 -45 29
-83 82 -83 115 0 78 66 143 135 132 22 -3 55 -18 74 -33z"/>
<path d="M0 3023 l0 -222 30 -51 c16 -28 30 -54 30 -58 0 -4 -14 -15 -30 -24
l-30 -17 0 -126 c0 -69 3 -125 6 -125 4 0 46 23 94 50 143 82 186 145 178 264
-3 48 -11 73 -35 111 -17 28 -61 102 -96 165 -36 63 -83 147 -106 185 l-41 70
0 -222z"/>
<path d="M10749 3120 c-61 -32 -62 -37 -10 -127 25 -45 49 -85 54 -89 4 -4 7
47 7 114 0 67 -3 122 -7 122 -5 -1 -24 -9 -44 -20z"/>
<path d="M1010 2593 c-42 -17 -220 -120 -257 -149 -23 -19 -47 -34 -55 -34
-17 -1 -255 -127 -350 -187 -21 -13 -40 -23 -42 -23 -3 0 -43 -22 -88 -48 -46
-27 -113 -65 -151 -86 l-67 -37 0 -124 c0 -69 4 -125 8 -125 5 0 37 17 73 38
35 21 203 116 373 212 295 166 309 173 323 154 21 -29 93 -162 93 -172 0 -9
-80 -57 -242 -146 -38 -20 -68 -42 -68 -48 0 -6 55 -109 122 -227 67 -119 161
-288 211 -376 49 -88 96 -171 104 -184 8 -13 11 -27 6 -31 -16 -15 -214 -123
-218 -119 -4 4 -83 143 -148 259 -27 49 -121 217 -182 325 -12 22 -44 78 -69
125 -26 47 -51 89 -56 94 -5 5 -58 -19 -122 -55 -62 -34 -134 -74 -160 -88
l-48 -26 0 -162 0 -161 88 -68 c48 -38 89 -71 92 -74 4 -4 135 -109 312 -249
32 -26 58 -49 58 -52 0 -9 -214 -129 -229 -129 -7 0 -54 34 -104 75 -51 41
-98 75 -106 75 -7 0 -35 -12 -62 -27 l-49 -28 0 -127 c0 -71 3 -128 8 -128 4
0 18 9 32 20 36 28 53 25 111 -19 64 -49 121 -65 198 -58 107 9 401 191 401
247 0 5 17 10 38 10 61 0 100 16 236 93 108 61 136 82 162 120 66 95 59 183
-25 318 -32 52 -80 135 -108 184 -28 50 -82 147 -122 216 -39 69 -71 131 -71
137 0 6 8 16 19 21 24 13 35 0 93 -104 25 -44 57 -102 73 -130 16 -27 56 -99
90 -160 34 -60 77 -136 95 -168 46 -82 93 -124 158 -143 83 -25 128 -14 267
63 148 82 168 97 199 143 23 35 28 37 93 44 133 14 255 100 309 219 23 52 28
75 28 148 0 77 -3 93 -33 153 -47 96 -84 134 -169 173 -54 25 -91 35 -150 40
-69 5 -84 3 -142 -22 -36 -15 -82 -43 -103 -62 -21 -19 -43 -33 -50 -30 -10 3
-53 78 -262 452 -86 156 -110 186 -170 215 -41 20 -157 27 -195 13z m206 -403
c134 -240 162 -290 224 -400 172 -306 230 -410 230 -414 0 -2 -28 -20 -62 -39
-35 -19 -80 -44 -101 -56 -21 -11 -43 -21 -51 -21 -7 0 -42 53 -78 118 -57
101 -162 287 -263 467 -106 187 -163 289 -197 351 l-39 72 108 60 c83 46 111
58 120 49 6 -7 55 -91 109 -187z m783 -408 c46 -34 65 -69 65 -121 0 -63 -35
-112 -97 -136 -113 -43 -223 59 -189 174 29 94 147 138 221 83z m-1702 -485
c27 -54 24 -68 -11 -47 -35 22 -106 89 -106 100 0 5 12 16 28 24 25 14 28 14
46 -7 10 -12 29 -44 43 -70z"/>
<path d="M10774 1371 l-21 -55 -84 0 c-84 -1 -84 -1 -204 -66 -146 -79 -207
-135 -229 -211 -19 -62 -20 -128 -5 -199 16 -75 5 -80 -78 -39 -63 31 -76 34
-188 37 -112 4 -128 2 -230 -28 -61 -17 -126 -41 -145 -52 -47 -28 -72 -42
-235 -133 -186 -103 -214 -123 -249 -172 -23 -33 -31 -57 -35 -110 l-6 -68
-85 3 c-274 8 -474 -64 -665 -240 l-40 -37 182 -1 c167 0 190 2 274 26 81 24
103 26 202 22 82 -4 127 -11 167 -27 48 -18 75 -21 207 -21 l153 0 -27 48
c-14 26 -54 98 -89 159 -35 62 -64 116 -64 120 0 5 55 40 122 78 369 211 525
253 672 181 69 -34 129 -100 169 -184 28 -58 32 -78 32 -147 -1 -89 -18 -133
-82 -212 l-34 -43 200 0 c186 0 201 1 201 18 0 18 -6 67 -80 642 -22 173 -40
318 -40 322 0 9 197 118 214 118 7 0 42 -23 77 -51 l64 -51 3 106 c1 58 1 154
0 214 l-3 107 -21 -54z"/>
<path d="M1960 907 c-47 -17 -214 -113 -267 -153 -22 -17 -54 -35 -70 -38 -15
-4 -66 -29 -113 -56 -93 -53 -486 -274 -670 -377 -141 -79 -163 -98 -199 -170
l-29 -57 -88 -1 c-73 0 -97 -4 -132 -23 -23 -12 -42 -25 -42 -27 0 -3 110 -5
245 -5 203 0 245 2 245 14 0 11 128 88 378 227 20 12 137 77 260 146 122 69
228 123 235 120 16 -6 110 -174 103 -185 -3 -5 -75 -48 -161 -96 l-155 -88 37
-69 37 -69 123 0 123 0 -6 29 c-8 41 23 51 52 17 12 -13 24 -30 26 -36 2 -7
44 -10 130 -8 l127 3 -76 135 c-42 74 -114 202 -160 284 -69 122 -82 151 -71
162 19 18 189 114 202 114 7 0 22 -19 34 -42 12 -24 35 -68 53 -98 17 -30 54
-95 82 -145 28 -49 63 -111 79 -138 15 -26 28 -49 28 -52 0 -2 19 -37 43 -77
23 -40 51 -90 62 -110 l20 -38 135 0 135 0 20 37 c31 57 67 78 133 78 68 0
103 -21 129 -77 l18 -37 109 -1 109 0 -7 46 c-8 63 -61 158 -112 203 -57 50
-176 91 -266 91 -59 0 -76 -5 -145 -41 -43 -22 -86 -48 -96 -57 -15 -14 -19
-14 -32 -1 -12 12 -102 167 -198 339 -143 260 -157 280 -220 312 -51 26 -149
33 -197 15z"/>
<path d="M10694 754 c3 -9 20 -102 37 -207 17 -106 32 -193 34 -195 1 -1 10 0
19 4 14 5 16 27 16 170 l0 163 -42 40 c-44 42 -75 54 -64 25z"/>
<path d="M9850 373 c-14 -2 -72 -27 -128 -54 -86 -42 -103 -54 -99 -69 8 -32
130 -242 143 -247 14 -5 81 27 144 70 69 48 86 65 105 108 15 33 16 45 7 78
-16 51 -48 90 -88 107 -34 14 -39 15 -84 7z"/>
<path d="M4455 45 c-38 -7 -86 -20 -105 -29 -33 -14 -20 -15 210 -15 153 0
239 3 229 9 -33 19 -166 50 -214 49 -27 0 -81 -7 -120 -14z"/>
<path d="M5410 10 c0 -5 9 -10 21 -10 11 0 17 4 14 10 -8 13 -35 13 -35 0z"/>
</g>
</svg>
